{
    "asset" : {
        "generator" : "Khronos glTF Blender I/O v1.8.19",
        "version" : "2.0"
    },
    "scene" : 0,
    "scenes" : [
        {
            "name" : "Scene",
            "nodes" : [
                0
            ]
        }
    ],
    "nodes" : [
        {
            "mesh" : 0,
            "name" : "Cube",
            "rotation" : [
                -0.22284993529319763,
                0.03934025391936302,
                0.5348647236824036,
                0.8140701651573181
            ],
            "scale" : [
                0.7513588070869446,
                1,
                0.7714263200759888
            ],
            "translation" : [
                0.008949649520218372,
                0.8415536880493164,
                -3.315282356197713e-06
            ]
        }
    ],
    "materials" : [
        {
            "doubleSided" : true,
            "name" : "Material",
            "pbrMetallicRoughness" : {
                "baseColorFactor" : [
                    0.4058545231819153,
                    0.4058545231819153,
                    0.4058545231819153,
                    1
                ]
            }
        }
    ],
    "meshes" : [
        {
            "name" : "Cube",
            "primitives" : [
                {
                    "attributes" : {
                        "POSITION" : 0,
                        "NORMAL" : 1,
                        "TEXCOORD_0" : 2,
                        "TEXCOORD_1" : 3
                    },
                    "indices" : 4,
                    "material" : 0
                }
            ]
        }
    ],
    "accessors" : [
        {
            "bufferView" : 0,
            "componentType" : 5126,
            "count" : 37163,
            "max" : [
                0.7085712552070618,
                0.7870517373085022,
                3.8384976387023926
            ],
            "min" : [
                -0.7085712552070618,
                -3.4114792346954346,
                -3.606262683868408
            ],
            "type" : "VEC3"
        },
        {
            "bufferView" : 1,
            "componentType" : 5126,
            "count" : 37163,
            "type" : "VEC3"
        },
        {
            "bufferView" : 2,
            "componentType" : 5126,
            "count" : 37163,
            "type" : "VEC2"
        },
        {
            "bufferView" : 3,
            "componentType" : 5126,
            "count" : 37163,
            "type" : "VEC2"
        },
        {
            "bufferView" : 4,
            "componentType" : 5123,
            "count" : 61206,
            "type" : "SCALAR"
        }
    ],
    "bufferViews" : [
        {
            "buffer" : 0,
            "byteLength" : 445956,
            "byteOffset" : 0
        },
        {
            "buffer" : 0,
            "byteLength" : 445956,
            "byteOffset" : 445956
        },
        {
            "buffer" : 0,
            "byteLength" : 297304,
            "byteOffset" : 891912
        },
        {
            "buffer" : 0,
            "byteLength" : 297304,
            "byteOffset" : 1189216
        },
        {
            "buffer" : 0,
            "byteLength" : 122412,
            "byteOffset" : 1486520
        }
    ],
    "buffers" : [
        {
            "byteLength" : 1608932,
            "uri" : "data:application/octet-stream;base64,"
        }
    ]
}
